<?xml version="1.0" encoding="UTF-8"?>
<svg version="1.1" xmlns="http://www.w3.org/2000/svg" width="1080" height="1080">
<path d="M0 0 C356.4 0 712.8 0 1080 0 C1080 356.4 1080 712.8 1080 1080 C723.6 1080 367.2 1080 0 1080 C0 723.6 0 367.2 0 0 Z " fill="#010100" transform="translate(0,0)"/>
<path d="M0 0 C32.01 0 64.02 0 97 0 C100.96 6.27 104.92 12.54 109 19 C112.02430158 23.57618047 115.05860606 28.14011472 118.125 32.6875 C123.24327083 40.31043383 128.29682535 47.95610832 133.09423828 55.78588867 C137.22459494 62.47001676 141.62511074 68.97483143 146 75.5 C151.15502049 83.18873808 156.25691783 90.89075517 161.09375 98.78515625 C165.22436385 105.4694942 169.62517279 111.9744179 174 118.5 C183.66280573 132.91621778 183.66280573 132.91621778 187.9375 139.875 C192.54134566 147.36636782 197.36128642 154.71346086 202.1875 162.0625 C202.60068481 162.69182434 203.01386963 163.32114868 203.4395752 163.96954346 C205.51107017 167.12421857 207.58347407 170.27829535 209.65625 173.43212891 C218.98627435 187.63129541 228.22135052 201.88743345 237.36083984 216.20996094 C241.34176503 222.43867274 245.37309081 228.62664398 249.49658203 234.76171875 C252.90711173 239.83971362 256.23292567 244.96979624 259.54858398 250.11010742 C263.47158586 256.19011432 267.41993741 262.25330585 271.375 268.3125 C276.13109852 275.60021573 280.88327267 282.89042426 285.625 290.1875 C286.14827881 290.99268066 286.67155762 291.79786133 287.21069336 292.62744141 C289.97121233 296.87576979 292.73025532 301.12505274 295.48828125 305.375 C296.06562012 306.26421143 296.64295898 307.15342285 297.23779297 308.06958008 C298.32973239 309.75140518 299.42124054 311.43351041 300.51220703 313.1159668 C301.26219971 314.27092651 301.26219971 314.27092651 302.02734375 315.44921875 C302.67304321 316.44441528 302.67304321 316.44441528 303.33178711 317.4597168 C305.86701183 321.32024851 308.43808548 325.15712822 311 329 C311.33 220.43 311.66 111.86 312 0 C343.68 0 375.36 0 408 0 C408 164.34 408 328.68 408 498 C375.99 498 343.98 498 311 498 C307.7 492.72 304.4 487.44 301 482 C298.01794337 477.48606496 295.0238389 472.9854493 292 468.5 C286.84025646 460.81459708 281.74293536 453.10900521 276.90625 445.21484375 C272.77563642 438.53050623 268.37483478 432.0255767 264 425.5 C258.82495763 417.7792752 253.69604 410.04667397 248.82495117 402.12915039 C244.93141922 395.82662348 240.87355566 389.63294179 236.8125 383.4375 C236.4481485 382.8815918 236.083797 382.32568359 235.70840454 381.75292969 C234.23114977 379.4995137 232.75347136 377.24637647 231.27516174 374.99365234 C227.54863194 369.31466056 223.83515411 363.62719931 220.125 357.9375 C219.19143677 356.50615723 219.19143677 356.50615723 218.23901367 355.04589844 C214.68934578 349.600584 211.15123297 344.14801283 207.625 338.6875 C201.20911119 328.75318143 194.72432986 318.86383775 188.24945068 308.96792603 C179.869327 296.15882835 171.50318186 283.34075753 163.19726562 270.48339844 C158.71444381 263.54851917 154.20058365 256.63395882 149.6875 249.71875 C145.08971544 242.67315706 140.50173858 235.62126832 135.91894531 228.56591797 C131.10961793 221.16390188 126.28548484 213.77158103 121.46069336 206.37963867 C117.23872652 199.90815084 113.03087204 193.42777414 108.85107422 186.92895508 C104.96710514 180.9055385 100.97755787 174.9663368 97 169 C96.67 277.57 96.34 386.14 96 498 C64.32 498 32.64 498 0 498 C0 333.66 0 169.32 0 0 Z " fill="#D19640" transform="translate(336,290)"/>
<path d="M0 0 C31.68 0 63.36 0 96 0 C96 164.34 96 328.68 96 498 C95.67 498 95.34 498 95 498 C95.00959496 497.07915776 95.01918991 496.15831553 95.02907562 495.20956898 C95.2574068 472.76482324 95.39668784 450.32104841 95.43784332 427.87514973 C95.45987598 417.02007915 95.51162899 406.16669442 95.63427734 395.31225586 C95.74115016 385.84719711 95.79131357 376.38379166 95.77444887 366.91811532 C95.76747672 361.90893317 95.78816879 356.90343008 95.87687683 351.89495277 C97.41323087 330.72559312 97.41323087 330.72559312 90.51147461 311.74716187 C87.29733632 308.76661166 83.90193006 306.7106763 79.9150238 304.92334557 C77.07095689 303.5520537 74.85336155 301.57953061 72.5 299.5 C68.00976092 295.82124991 63.50642685 292.15888063 59 288.5 C52.65476446 283.3477905 46.32215326 278.18052012 40 273 C37.25159314 270.75094603 34.50283671 268.50232021 31.75390625 266.25390625 C29.90662478 264.74201773 28.06028125 263.22898251 26.21484375 261.71484375 C21.03854715 257.47042615 15.83961884 253.26064532 10.58203125 249.1171875 C9.30392578 248.06917969 9.30392578 248.06917969 8 247 C7.35045113 246.54192945 6.70090226 246.0838589 6.03167009 245.61190742 C0.45521866 241.37081536 0.45521866 241.37081536 -0.73725986 237.77986443 C-1.00696262 235.17217597 -1.02889839 232.66780663 -0.96203613 230.04689026 C-0.96887153 229.06085672 -0.97570693 228.07482318 -0.98274946 227.05890983 C-0.99590232 223.76277163 -0.95197627 220.46990893 -0.90820312 217.17407227 C-0.905946 214.80853858 -0.90721424 212.4429993 -0.91174316 210.07746887 C-0.91403872 203.66024133 -0.86700177 197.2442098 -0.8111515 190.82726026 C-0.76238576 184.79928452 -0.75816462 178.77117588 -0.74993652 172.74303936 C-0.73244388 160.80608796 -0.67924973 148.86957486 -0.60351562 136.93286133 C-0.53004049 125.34011014 -0.47343441 113.74747816 -0.43945312 102.15454102 C-0.43735134 101.43950114 -0.43524955 100.72446127 -0.43308407 99.98775352 C-0.42264348 96.40047161 -0.41253389 92.81318885 -0.40258884 89.22590554 C-0.31970611 59.48358661 -0.17225399 29.74196949 0 0 Z " fill="#B76C1F" transform="translate(648,290)"/>
<path d="M0 0 C0.33 0 0.66 0 1 0 C0.99224863 0.9320715 0.98449726 1.86414299 0.976511 2.82445908 C0.79085759 25.53594512 0.68620348 48.24671366 0.66578102 70.9589653 C0.65404217 81.94276491 0.61628252 92.92530877 0.51660156 103.90869141 C0.42975384 113.48539362 0.39240494 123.06081281 0.41372812 132.63790727 C0.42330463 137.7064792 0.40861875 142.77228794 0.33458328 147.84038544 C0.26556426 152.61874014 0.26312323 157.39266565 0.31009102 162.17124367 C0.31582332 163.917532 0.29795196 165.66409572 0.25374794 167.40983391 C-0.04872473 177.84327763 -0.04872473 177.84327763 4.98090744 186.5923233 C7.85647972 189.23529851 10.91756208 191.52645121 14.14542079 193.71921015 C16.66424814 195.45873601 19.04270316 197.35605375 21.43484366 199.26421809 C23.12892134 200.61548024 24.83798499 201.94601376 26.55078125 203.2734375 C30.59067722 206.43826987 34.49105969 209.75907903 38.39355469 213.09057617 C42.27194403 216.39760621 46.21345108 219.60723854 50.20703125 222.7734375 C53.8248949 225.65760852 57.41196462 228.57885947 61 231.5 C65.29782899 234.99799103 69.59949172 238.48933958 73.9375 241.9375 C74.64059327 242.52587584 75.34368654 243.11425167 76.06808567 243.72045708 C78.39050847 245.52612459 80.66701289 247.07078852 83.14528561 248.63527107 C89.56543626 252.92980092 95.819344 257.16656963 97.54832649 265.07778549 C98.30380751 271.1932761 98.10693473 277.29114515 97.92993164 283.43701172 C97.92512905 285.78387094 97.92784242 288.13075565 97.93745422 290.4776001 C97.94230943 296.81355009 97.84276353 303.14396913 97.72369695 309.47863913 C97.62785347 315.43831912 97.61106967 321.39780209 97.59361511 327.35814871 C97.55652757 339.15337504 97.44372992 350.94658789 97.2824707 362.74072266 C97.12611071 374.18853777 97.00593678 385.63580345 96.93383789 397.08447266 C96.92937159 397.79169947 96.92490529 398.49892629 96.92030365 399.22758423 C96.8981159 402.77600088 96.87663337 406.32442138 96.85550129 409.87284446 C96.67963951 439.25007833 96.3664567 468.62443261 96 498 C64.32 498 32.64 498 0 498 C0 333.66 0 169.32 0 0 Z " fill="#B76C1F" transform="translate(336,290)"/>
<path d="M0 0 C10.09126862 -0.44209317 20.18020551 -0.77869744 30.27921677 -0.98443127 C34.97040577 -1.08323791 39.65493328 -1.21690608 44.34228516 -1.43334961 C74.47717557 -2.78821535 74.47717557 -2.78821535 81.76678467 1.70565796 C86.00058331 5.98234558 88.12710491 10.94348587 90.07763672 16.56460571 C91.44379239 20.17178282 93.51215432 23.09099694 95.7578125 26.19921875 C96.4796875 27.27365234 97.2015625 28.34808594 97.9453125 29.45507812 C99.02425781 31.05512695 99.02425781 31.05512695 100.125 32.6875 C105.24327083 40.31043383 110.29682535 47.95610832 115.09423828 55.78588867 C119.22459494 62.47001676 123.62511074 68.97483143 128 75.5 C133.14783413 83.17801959 138.25179697 90.86455878 143.07177734 98.75439453 C145.8153627 103.20316581 148.68960389 107.55848955 151.6015625 111.8984375 C152.21774445 112.81740814 152.21774445 112.81740814 152.84637451 113.75494385 C154.92685511 116.85457162 157.01408589 119.94942713 159.109375 123.0390625 C159.87770803 124.17961754 160.64594168 125.32023953 161.4140625 126.4609375 C162.44974365 127.98920166 162.44974365 127.98920166 163.50634766 129.54833984 C165 132 165 132 165 134 C162.23344582 132.70891619 159.95037933 131.2935196 157.6015625 129.34765625 C156.96452393 128.82413574 156.32748535 128.30061523 155.67114258 127.76123047 C154.658302 126.92035889 154.658302 126.92035889 153.625 126.0625 C152.18441188 124.87791061 150.74299067 123.6943337 149.30078125 122.51171875 C148.57842285 121.9192334 147.85606445 121.32674805 147.11181641 120.71630859 C144.04623463 118.2248589 140.93178302 115.79860605 137.8125 113.375 C132.72883691 109.41427179 127.78824279 105.31592338 122.89379883 101.12451172 C119.00715602 97.81159741 115.03239022 94.63333633 111 91.5 C105.85122701 87.49918743 100.8464859 83.36609011 95.89453125 79.125 C92.0075059 75.81208736 88.0326226 72.6335169 84 69.5 C78.85041818 65.49855894 73.84459722 61.36512877 68.89233398 57.12280273 C65.02829148 53.82887444 61.07442547 50.67397108 57.0625 47.5625 C52.25832811 43.83420696 47.59221755 39.98629105 43 36 C38.48575003 32.08375952 33.90693551 28.29156073 29.1875 24.625 C23.70848628 20.36624438 18.30236337 16.02685051 12.9375 11.625 C12.22295654 11.04186035 11.50841309 10.4587207 10.7722168 9.85791016 C10.09328369 9.29894043 9.41435059 8.7399707 8.71484375 8.1640625 C8.11792725 7.67373535 7.52101074 7.1834082 6.90600586 6.67822266 C4.49594629 4.5561848 2.2633279 2.27686148 0 0 Z " fill="#BA7427" transform="translate(354,290)"/>
<path d="M0 0 C3.83342638 1.67074273 6.94422447 4.16108163 10.1875 6.75 C10.79118408 7.22808105 11.39486816 7.70616211 12.0168457 8.19873047 C19.11342782 13.84388248 26.09516796 19.62989897 33.08007812 25.41210938 C38.912947 30.23624202 44.7710705 35.0286109 50.6875 39.75 C62.24875842 48.97712422 73.67831481 58.3661685 85.08984375 67.77734375 C89.20352861 71.16957292 93.32782791 74.548547 97.45703125 77.921875 C99.2266882 79.36804627 100.99480376 80.81610492 102.76171875 82.265625 C107.05191476 85.78394474 111.34997852 89.29013755 115.6875 92.75 C122.83115545 98.45140325 129.9171859 104.22332622 137 110 C137.75958008 110.61842773 138.51916016 111.23685547 139.30175781 111.87402344 C141.5995122 113.7463034 143.89392635 115.622602 146.1875 117.5 C146.89398682 118.07508301 147.60047363 118.65016602 148.32836914 119.24267578 C149.33178345 120.06614502 149.33178345 120.06614502 150.35546875 120.90625 C150.93965576 121.38384766 151.52384277 121.86144531 152.12573242 122.35351562 C154.52694738 124.46290649 156.74726232 126.73380328 159 129 C149.26486093 129.37195086 139.53142869 129.65559231 129.79061317 129.82899475 C125.26620987 129.91226162 120.74668918 130.02497851 116.22509766 130.20703125 C111.85445413 130.38188951 107.48847737 130.47672644 103.11460495 130.51803589 C101.45305193 130.54743431 99.79173451 130.60486475 98.1321907 130.69168091 C87.59711959 131.2204965 87.59711959 131.2204965 83 129 C78.84766228 125.13393567 76.4276149 120.09237334 74.02175522 115.03189087 C72.42529078 111.85711725 70.45023707 109.02063255 68.4375 106.09375 C67.70917969 105.00964844 66.98085938 103.92554688 66.23046875 102.80859375 C65.49441406 101.71675781 64.75835938 100.62492188 64 99.5 C58.84025646 91.81459708 53.74293536 84.10900521 48.90625 76.21484375 C44.77563642 69.53050623 40.37483478 63.0255767 36 56.5 C30.83600439 48.79575604 25.70821659 41.08474015 20.85791016 33.17749023 C15.92686483 25.17859241 10.71144683 17.35868535 5.53491211 9.51733398 C4.81956299 8.43009033 4.10421387 7.34284668 3.3671875 6.22265625 C2.71862793 5.24047119 2.07006836 4.25828613 1.40185547 3.24633789 C0 1 0 1 0 0 Z " fill="#B97326" transform="translate(564,659)"/>
<path d="M0 0 C1.65 0 3.3 0 5 0 C5.33 0.99 5.66 1.98 6 3 C8.50447516 4.21869929 8.50447516 4.21869929 11 5 C11 5.66 11 6.32 11 7 C11.804375 7.268125 12.60875 7.53625 13.4375 7.8125 C14.283125 8.204375 15.12875 8.59625 16 9 C16.33 9.99 16.66 10.98 17 12 C19.50447516 13.21869929 19.50447516 13.21869929 22 14 C22 14.66 22 15.32 22 16 C22.763125 16.268125 23.52625 16.53625 24.3125 16.8125 C26.93032534 17.96921352 28.10703497 18.93494724 30 21 C30.99 21.66 31.98 22.32 33 23 C33 23.66 33 24.32 33 25 C33.763125 25.268125 34.52625 25.53625 35.3125 25.8125 C37.93032534 26.96921352 39.10703497 27.93494724 41 30 C41.99 30.66 42.98 31.32 44 32 C44 32.66 44 33.32 44 34 C45.65 34.66 47.3 35.32 49 36 C49 36.66 49 37.32 49 38 C50.65 38.66 52.3 39.32 54 40 C54 40.66 54 41.32 54 42 C54.804375 42.268125 55.60875 42.53625 56.4375 42.8125 C57.283125 43.204375 58.12875 43.59625 59 44 C59.33 44.99 59.66 45.98 60 47 C61.65438613 47.69658363 63.32254318 48.36096883 65 49 C66.5 50.375 66.5 50.375 68 52 C70.60467861 54.14885985 73.1887819 56.1258546 76 58 C76 58.66 76 59.32 76 60 C76.763125 60.268125 77.52625 60.53625 78.3125 60.8125 C80.93032534 61.96921352 82.10703497 62.93494724 84 65 C85.485 65.99 85.485 65.99 87 67 C87 67.66 87 68.32 87 69 C87.763125 69.268125 88.52625 69.53625 89.3125 69.8125 C91.93032534 70.96921352 93.10703497 71.93494724 95 74 C96.485 74.99 96.485 74.99 98 76 C98 76.66 98 77.32 98 78 C99.65 78.66 101.3 79.32 103 80 C103 80.66 103 81.32 103 82 C103.763125 82.268125 104.52625 82.53625 105.3125 82.8125 C107.93032534 83.96921352 109.10703497 84.93494724 111 87 C112.485 87.99 112.485 87.99 114 89 C114 89.66 114 90.32 114 91 C114.763125 91.268125 115.52625 91.53625 116.3125 91.8125 C119.00995593 93.00439913 120.03939027 93.88254149 122 96 C125.75121057 99.35426268 125.75121057 99.35426268 130 102 C130 102.66 130 103.32 130 104 C131.65 104.66 133.3 105.32 135 106 C135 106.66 135 107.32 135 108 C135.804375 108.268125 136.60875 108.53625 137.4375 108.8125 C138.283125 109.204375 139.12875 109.59625 140 110 C140.33 110.99 140.66 111.98 141 113 C143.50447516 114.21869929 143.50447516 114.21869929 146 115 C146 115.66 146 116.32 146 117 C146.763125 117.268125 147.52625 117.53625 148.3125 117.8125 C150.93032534 118.96921352 152.10703497 119.93494724 154 122 C154.99 122.66 155.98 123.32 157 124 C157 124.66 157 125.32 157 126 C157.99 125.67 158.98 125.34 160 125 C160.83905565 126.12073862 161.67107831 127.24674547 162.5 128.375 C162.9640625 129.00148438 163.428125 129.62796875 163.90625 130.2734375 C165 132 165 132 165 134 C162.23344582 132.70891619 159.95037933 131.2935196 157.6015625 129.34765625 C156.96452393 128.82413574 156.32748535 128.30061523 155.67114258 127.76123047 C154.658302 126.92035889 154.658302 126.92035889 153.625 126.0625 C152.18441188 124.87791061 150.74299067 123.6943337 149.30078125 122.51171875 C148.57842285 121.9192334 147.85606445 121.32674805 147.11181641 120.71630859 C144.04623463 118.2248589 140.93178302 115.79860605 137.8125 113.375 C132.72883691 109.41427179 127.78824279 105.31592338 122.89379883 101.12451172 C119.00715602 97.81159741 115.03239022 94.63333633 111 91.5 C105.85122701 87.49918743 100.8464859 83.36609011 95.89453125 79.125 C92.0075059 75.81208736 88.0326226 72.6335169 84 69.5 C78.85041818 65.49855894 73.84459722 61.36512877 68.89233398 57.12280273 C65.02829148 53.82887444 61.07442547 50.67397108 57.0625 47.5625 C52.25832811 43.83420696 47.59221755 39.98629105 43 36 C38.48575003 32.08375952 33.90693551 28.29156073 29.1875 24.625 C23.70848628 20.36624438 18.30236337 16.02685051 12.9375 11.625 C12.22295654 11.04186035 11.50841309 10.4587207 10.7722168 9.85791016 C6.97928209 6.73516411 3.40418576 3.54353839 0 0 Z " fill="#AD681F" transform="translate(354,290)"/>
<path d="M0 0 C3.47064731 1.5532967 6.22929462 3.6229487 9.1875 6 C10.50814453 7.051875 10.50814453 7.051875 11.85546875 8.125 C14 10 14 10 15 12 C13.3247643 11.71281674 11.65919896 11.36871088 10 11 C9.175 10.835 8.35 10.67 7.5 10.5 C3.50098941 8.10059365 1.98707599 4.10944227 0 0 Z " fill="#A2611D" transform="translate(564,659)"/>
<path d="M0 0 C6.52307692 1.47692308 6.52307692 1.47692308 8.9375 4.125 C9.288125 4.74375 9.63875 5.3625 10 6 C6.44219804 5.39009109 3.3171411 4.4216319 0 3 C0 2.01 0 1.02 0 0 Z " fill="#AB6720" transform="translate(569,665)"/>
<path d="M0 0 C3.36720387 1.39332574 4.9859524 2.9789286 7 6 C3.75791433 5.64950425 2.38472296 5.43778819 0.1875 2.9375 C-0.4003125 1.9784375 -0.4003125 1.9784375 -1 1 C-0.67 0.67 -0.34 0.34 0 0 Z " fill="#AD681F" transform="translate(583,674)"/>
<path d="M0 0 C0.99 0.33 1.98 0.66 3 1 C2.814375 1.61875 2.62875 2.2375 2.4375 2.875 C1.76313824 5.04160178 1.76313824 5.04160178 3 7 C2.01 7.33 1.02 7.66 0 8 C-0.66 7.34 -1.32 6.68 -2 6 C-1.34 4.02 -0.68 2.04 0 0 Z " fill="#CA8E3A" transform="translate(549,472)"/>
<path d="M0 0 C3.36720387 1.39332574 4.9859524 2.9789286 7 6 C4.625 5.8125 4.625 5.8125 2 5 C0.6875 2.4375 0.6875 2.4375 0 0 Z " fill="#AD681E" transform="translate(637,718)"/>
<path d="M0 0 C3.36720387 1.39332574 4.9859524 2.9789286 7 6 C4.625 5.8125 4.625 5.8125 2 5 C0.6875 2.4375 0.6875 2.4375 0 0 Z " fill="#AD681F" transform="translate(594,683)"/>
<path d="M0 0 C3.36720387 1.39332574 4.9859524 2.9789286 7 6 C3.20411134 5.45773019 1.52788007 3.79872437 -1 1 C-0.67 0.67 -0.34 0.34 0 0 Z " fill="#AD681E" transform="translate(362,494)"/>
<path d="M0 0 C3.26460973 1.80412643 4.88929795 2.83394693 7 6 C3.75728494 5.4409112 2.06942576 4.5867822 0 2 C0 1.34 0 0.68 0 0 Z " fill="#AC671E" transform="translate(416,538)"/>
</svg>
